<svg xmlns="http://www.w3.org/2000/svg" viewBox="0 0 900 1200">
<defs>
 <filter id="paper"><feTurbulence baseFrequency=".018" numOctaves="4" seed="9"/><feDisplacementMap in="SourceGraphic" scale="10"/></filter>
 <filter id="soft"><feGaussianBlur stdDeviation="8"/></filter>
</defs>
<path fill="#9cced3" opacity=".56" d="M0 560 Q210 485 450 560 T900 545 V860 H0Z"/>
<path fill="#f5e29e" opacity=".68" d="M0 790 Q210 740 440 790 T900 775 V1200 H0Z"/>
<g opacity=".28" filter="url(#soft)" fill="#fff"><ellipse cx="160" cy="420" rx="160" ry="48"/><ellipse cx="720" cy="510" rx="180" ry="55"/></g>
<g filter="url(#paper)">
 <path fill="#718f68" d="M0 760 Q100 650 210 705 Q105 785 0 855Z"/>
 <path fill="#7d9c6e" d="M900 735 Q790 645 690 710 Q800 795 900 855Z"/>
 <g stroke="#71936b" stroke-width="7" stroke-linecap="round">
  <path d="M95 905q5-105-25-170M116 900q20-95 64-150M775 910q-5-110 25-185M798 910q-30-105-72-150"/>
 </g>
 <g fill="#ecd16f"><circle cx="65" cy="760" r="10"/><circle cx="178" cy="770" r="12"/><circle cx="728" cy="770" r="10"/><circle cx="820" cy="745" r="13"/></g>
 <!-- groom -->
 <g transform="translate(270 590)">
  <ellipse cx="84" cy="105" rx="52" ry="62" fill="#dfb18f"/>
  <path fill="#373a32" d="M31 96Q29 30 86 26q58 6 55 70-37-28-110 0Z"/>
  <path fill="#f2eee1" d="M22 165q60-38 126 0l27 186H0Z"/>
  <path fill="#c9b28d" d="M22 337h126l-15 186H42Z"/>
  <path fill="#6c543e" d="M38 514h38l-15 35H25ZM107 514h38l13 35h-38Z"/>
 </g>
 <!-- bride -->
 <g transform="translate(447 580)">
  <ellipse cx="82" cy="106" rx="50" ry="61" fill="#e0b391"/>
  <path fill="#38382f" d="M27 105Q17 32 83 22q67 5 58 101-21-11-30-62-45 24-84 44Z"/>
  <path fill="#f7f1df" d="M16 166q65-39 134 1l35 335H-12Z"/>
  <path fill="#c4a582" d="M20 497h40l-13 38H8ZM104 497h40l15 38h-41Z"/>
 </g>
 <!-- baby -->
 <g transform="translate(389 730) rotate(-5)">
  <path fill="#fbfaf1" d="M0 25q62-40 126 0l-7 118H8Z"/>
  <ellipse cx="63" cy="26" rx="35" ry="32" fill="#e1b392"/>
  <path fill="#4d4337" d="M31 20Q39-16 65-9q31 1 34 33-36-15-68-4Z"/>
  <path d="M48 30q7 5 13 0M73 30q7 5 13 0" stroke="#6b5143" stroke-width="3" fill="none" stroke-linecap="round"/>
 </g>
</g>
</svg>
