<svg xmlns="http://www.w3.org/2000/svg" viewBox="0 0 900 520">
<defs><filter id="w"><feTurbulence baseFrequency=".03" numOctaves="2"/><feDisplacementMap in="SourceGraphic" scale="6"/></filter></defs>
<rect width="900" height="520" fill="#dce8df"/>
<g opacity=".75" filter="url(#w)">
 <path d="M-40 115Q170 70 345 125t390-7q110-28 205 22" fill="none" stroke="#f7f0d7" stroke-width="52"/>
 <path d="M170-20q35 145 10 255t45 300" fill="none" stroke="#f7f0d7" stroke-width="44"/>
 <path d="M630-10q-30 120 15 224t-20 320" fill="none" stroke="#f7f0d7" stroke-width="36"/>
 <g fill="#a9c4a3"><path d="M0 300q120-60 230 15T470 300v220H0Z"/><path d="M620 280q150-70 280 5v235H660Z"/></g>
 <g transform="translate(450 226)">
  <path fill="#bd876d" d="M0-95c58 0 105 45 105 101 0 70-105 154-105 154S-105 76-105 6C-105-50-58-95 0-95Z"/>
  <circle cx="0" cy="5" r="37" fill="#f7eee0"/>
 </g>
</g>
</svg>
