<svg xmlns="http://www.w3.org/2000/svg" viewBox="0 0 900 1040">
<defs><filter id="w"><feTurbulence baseFrequency=".018" numOctaves="4"/><feDisplacementMap in="SourceGraphic" scale="9"/></filter></defs>
<circle cx="670" cy="245" r="88" fill="#f5d68b" opacity=".72"/>
<path fill="#9bbfc0" opacity=".7" d="M0 475q235-70 450 0t450-4v280H0Z"/>
<path fill="#e2c48e" d="M0 710q205-70 445 0t455 0v330H0Z"/>
<g filter="url(#w)">
 <g transform="translate(258 525)">
  <circle cx="78" cy="72" r="48" fill="#d9a986"/><path fill="#33372f" d="M29 71Q36 17 80 17q48 5 48 61-50-30-99-7Z"/>
  <path fill="#eee8d8" d="M20 118q58-30 116 0l23 260H2Z"/><path fill="#a9997e" d="M8 354h145l-14 170H35Z"/>
 </g>
 <g transform="translate(454 515)">
  <circle cx="78" cy="75" r="47" fill="#ddb08e"/><path fill="#35372f" d="M29 77Q21 20 79 14q57 7 51 79-28-11-33-53-29 27-68 37Z"/>
  <path fill="#f5edda" d="M10 123q68-32 139 0l34 390H-20Z"/>
 </g>
 <g transform="translate(380 676)">
  <path fill="#faf8ee" d="M0 25q65-40 130 0l-9 135H8Z"/><circle cx="64" cy="26" r="33" fill="#dfb18e"/><path fill="#484239" d="M34 19Q41-12 66-7q27 3 30 29-33-15-62-3Z"/>
 </g>
</g>
</svg>
